/* XPM */
static char * close_inactive_xpm[] = {
"25 18 34 1",
" 	c None",
".	c #A4B6C8",
"+	c #D5E2F0",
"@	c #CDDDEE",
"#	c #92A3B3",
"$	c #E2EBF4",
"%	c #DBE6F2",
"&	c #C0D5EA",
"*	c #A9BBCE",
"=	c #96A5B7",
"-	c #E6EAEF",
";	c #D6E3F0",
">	c #C1D6EA",
",	c #D4E1EE",
"'	c #94A4B5",
")	c #C4D8EB",
"!	c #CCD8E4",
"~	c #99AABB",
"{	c #C5D8EB",
"]	c #D2E0EF",
"^	c #AEBAC6",
"/	c #A5B6C8",
"(	c #EFF3F9",
"_	c #E4EDF5",
":	c #D8E4F1",
"<	c #C5D1DD",
"[	c #A7B3C0",
"}	c #91A2B2",
"|	c #D3DAE2",
"1	c #9CAEBF",
"2	c #A8BACC",
"3	c #DAE3ED",
"4	c #E4ECF5",
"5	c #D6D6D6",
".+@@@@@@@@@@@@@@@@@@@@+#$",
".%&&&&&&&&&&&&&&&&&&&&+#$",
".%&&&&&&&&&&&&&&&&&&&&+#$",
".%&&&&*===*&*===*&&&&&+#$",
".%&&&&=---=*=---=&&&&&+#$",
".%&&&&*=---=---=*&&&&&+#$",
".%&&&&&*=-----=*&&&&&&+#$",
".%&&&&&&*=---=*&&&&&&&+#$",
".%&&&&&&*=---=*&&&&&&&+#$",
".%&&&&&*=-----=*&&&&&&+#$",
".%&&&&*=---=---=*&&&&&+#$",
".%&&&&=---=*=---=&&&&&;#$",
".%&&&&*===*&*===*&&&&>,'$",
".%&&&&&&&&&&&&&&&&&&&)!~$",
".%&&&&&&&&&&&&&&&&&>{]^/(",
"._+++++++++++++++++:<[}| ",
"####################123  ",
"$$$$$$$$$$$$$$$$$$$$$45  "};
