/* XPM */
static char * close_active_xpm[] = {
"25 18 245 2",
"  	c None",
". 	c #956A62",
"+ 	c #FCFCFC",
"@ 	c #594541",
"# 	c #FEFEFE",
"$ 	c #94675E",
"% 	c #F2D4CF",
"& 	c #F5A89C",
"* 	c #F7A89C",
"= 	c #F8AA9B",
"- 	c #FAAA9B",
"; 	c #FBAA99",
"> 	c #FCAA99",
", 	c #F1A89C",
"' 	c #EEA79C",
") 	c #EDA79D",
"! 	c #E4A69D",
"~ 	c #F0CAC5",
"{ 	c #58433E",
"] 	c #93645B",
"^ 	c #F2D2CD",
"/ 	c #F3A394",
"( 	c #F6A394",
"_ 	c #F7A393",
": 	c #F8A393",
"< 	c #FAA593",
"[ 	c #F0A294",
"} 	c #EDA294",
"| 	c #EBA296",
"1 	c #E3A197",
"2 	c #EDC6C0",
"3 	c #55403D",
"4 	c #926057",
"5 	c #F0CFCA",
"6 	c #F29D8E",
"7 	c #F39D8E",
"8 	c #F69D8E",
"9 	c #F79D8E",
"0 	c #8E7073",
"a 	c #535666",
"b 	c #8F7073",
"c 	c #FA9D8D",
"d 	c #ED9D8E",
"e 	c #EC9C8E",
"f 	c #E89C8E",
"g 	c #DF9B8F",
"h 	c #EDC3BC",
"i 	c #543E39",
"j 	c #905B50",
"k 	c #EDCAC5",
"l 	c #EE9484",
"m 	c #F19484",
"n 	c #F29484",
"o 	c #F59484",
"p 	c #FFFFFF",
"q 	c #8E6D70",
"r 	c #E99384",
"s 	c #E89384",
"t 	c #E69385",
"u 	c #DC9287",
"v 	c #E9BEB6",
"w 	c #523B36",
"x 	c #8F554B",
"y 	c #ECC6C0",
"z 	c #EB8C7A",
"A 	c #ED8C7A",
"B 	c #F08C7A",
"C 	c #F18C7A",
"D 	c #8C696C",
"E 	c #FDFDFD",
"F 	c #F28C7A",
"G 	c #E68A7A",
"H 	c #E3897A",
"I 	c #E1897A",
"J 	c #D8897B",
"K 	c #E7B9B1",
"L 	c #4F3631",
"M 	c #8B4F44",
"N 	c #E8C0BB",
"O 	c #E78270",
"P 	c #E9826F",
"Q 	c #EC826F",
"R 	c #ED826F",
"S 	c #EE826E",
"T 	c #8C6668",
"U 	c #FAFAFA",
"V 	c #F0826E",
"W 	c #E18070",
"X 	c #DE7F70",
"Y 	c #DD7F70",
"Z 	c #D37E71",
"` 	c #E3B1AB",
" .	c #4D322D",
"..	c #89483C",
"+.	c #E6BBB5",
"@.	c #E17562",
"#.	c #E47562",
"$.	c #E77661",
"%.	c #E87661",
"&.	c #E97661",
"*.	c #EB7661",
"=.	c #8A6264",
"-.	c #E9E9E9",
";.	c #DC7562",
">.	c #D97464",
",.	c #D57464",
"'.	c #CA7165",
").	c #DEABA2",
"!.	c #4A2D27",
"~.	c #761401",
"{.	c #D29289",
"].	c #C32003",
"^.	c #C62003",
"/.	c #CA2102",
"(.	c #CD2102",
"_.	c #CF2302",
":.	c #D02302",
"<.	c #804441",
"[.	c #CE2102",
"}.	c #BA1F03",
"|.	c #B61F05",
"1.	c #B11F06",
"2.	c #A21B07",
"3.	c #C5766B",
"4.	c #350900",
"5.	c #761503",
"6.	c #D3938A",
"7.	c #C42507",
"8.	c #C82507",
"9.	c #CA2507",
"0.	c #CD2607",
"a.	c #CF2606",
"b.	c #804543",
"c.	c #E2E2E2",
"d.	c #CE2607",
"e.	c #BA2307",
"f.	c #B62108",
"g.	c #B1210A",
"h.	c #A21E0C",
"i.	c #C8796E",
"j.	c #350A02",
"k.	c #751806",
"l.	c #D3988E",
"m.	c #C42D11",
"n.	c #C62E11",
"o.	c #CA2E10",
"p.	c #CD2F10",
"q.	c #804846",
"r.	c #DCDCDC",
"s.	c #CE2F10",
"t.	c #BB2B11",
"u.	c #B62B11",
"v.	c #B42A12",
"w.	c #A52914",
"x.	c #C97F73",
"y.	c #350C04",
"z.	c #761C0C",
"A.	c #D49D94",
"B.	c #C53C1E",
"C.	c #C93D1E",
"D.	c #CA3D1C",
"E.	c #CD3D1C",
"F.	c #D7D7D7",
"G.	c #804D4A",
"H.	c #CE3D1C",
"I.	c #BC391E",
"J.	c #BA381F",
"K.	c #B63720",
"L.	c #A83420",
"M.	c #CA877B",
"N.	c #370E08",
"O.	c #792114",
"P.	c #D7A69C",
"Q.	c #C84D2F",
"R.	c #CA4D2E",
"S.	c #CF4D2D",
"T.	c #CF4E2D",
"U.	c #815351",
"V.	c #825351",
"W.	c #D44E2D",
"X.	c #D04E2D",
"Y.	c #C0492F",
"Z.	c #BE482F",
"`.	c #BB482F",
" +	c #B04834",
".+	c #CD9388",
"++	c #3B130E",
"@+	c #7A271B",
"#+	c #DCADA6",
"$+	c #CE5F41",
"%+	c #D06041",
"&+	c #D36141",
"*+	c #D46141",
"=+	c #D56141",
"-+	c #D86141",
";+	c #D76141",
">+	c #C85C42",
",+	c #C45B42",
"'+	c #C05A43",
")+	c #BB6252",
"!+	c #CAA098",
"~+	c #491E18",
"{+	c #7E2E21",
"]+	c #DEB5AD",
"^+	c #D46F52",
"/+	c #D77052",
"(+	c #D97051",
"_+	c #DA7151",
":+	c #DD7150",
"<+	c #DE7150",
"[+	c #DA7150",
"}+	c #CF6B52",
"|+	c #CA6B52",
"1+	c #C96A53",
"2+	c #9E8581",
"3+	c #73423B",
"4+	c #873527",
"5+	c #F0D7D3",
"6+	c #EDB1A0",
"7+	c #F0B2A0",
"8+	c #F1B2A0",
"9+	c #F2B4A0",
"0+	c #F2B2A0",
"a+	c #E9B0A1",
"b+	c #E8AFA1",
"c+	c #E7AFA1",
"d+	c #987C78",
"e+	c #4A2722",
"f+	c #DEDEDE",
"g+	c #5E2115",
"h+	c #4D1E15",
"i+	c #54261D",
"j+	c #54271E",
"k+	c #56281E",
"l+	c #57281F",
"m+	c #572920",
"n+	c #572921",
"o+	c #582921",
"p+	c #572A21",
"q+	c #562921",
"r+	c #4F251D",
"s+	c #4E231B",
"t+	c #4D221A",
"u+	c #87483C",
"v+	c #EEEEEE",
". + + + + + + + + + + + + + + + + + + + + + + @ # ",
"$ % & * = - ; > > > > > > > > > ; - , ' ) ! ~ { # ",
"] ^ / ( _ : < < < < < < < < < < < : [ } | 1 2 3 # ",
"4 5 6 7 8 9 0 a a a b c b a a a b 9 d e f g h i # ",
"j k l m n o a p p p a q a p p p a o r s t u v w # ",
"x y z A B C D a E E E a E E E a D F G H I J K L # ",
"M N O P Q R S T a U U U U U a T V R W X Y Z `  .# ",
"..+.@.#.$.%.&.*.=.a -.-.-.a =.*.&.%.;.>.,.'.).!.# ",
"~.{.].^./.(._.:.<.a -.-.-.a <.:._.[.}.|.1.2.3.4.# ",
"5.6.7.8.9.0.a.b.a c.c.c.c.c.a b.a.d.e.f.g.h.i.j.# ",
"k.l.m.n.o.p.q.a r.r.r.a r.r.r.a q.s.t.u.v.w.x.y.# ",
"z.A.B.C.D.E.a F.F.F.a G.a F.F.F.a H.I.J.K.L.M.N.# ",
"O.P.Q.R.S.T.U.a a a V.W.V.a a a U.X.Y.Z.`. +.+++# ",
"@+#+$+%+&+*+=+-+-+-+-+-+-+-+-+-+;+*+>+,+'+)+!+~+# ",
"{+]+^+/+(+_+:+<+<+<+<+<+<+<+<+<+<+[+}+|+1+l.2+3+# ",
"4+5+6+7+8+8+9+9+9+9+9+9+9+9+9+9+9+0+a+b+c+d+e+f+  ",
"g+h+i+j+k+l+m+m+n+o+n+n+n+p+n+n+q+q+r+s+t+u+v+    ",
"# # # # # # # # # # # # # # # # # # # # # #       "};
